# xmcd
#
# Track frame offsets:
#	150
#	18705
#	33227
#	50920
#	71460
#	90405
#	106030
#	124160
#	141365
#	159870
#	174580
#	192265
#	213237
#	232252
#	247872
#	265997
#
# Disc length: 3768 seconds
#
# Revision: 0
# Processed by: cddbd v1.4PL0 Copyright (c) Steve Scherf et al.
# Submitted via: dBpowerAMP V4.0
#
DISCID=dc0eb610
DTITLE=Paul Weller - Backing Tracks
DYEAR=1900
DGENRE=Undefined
TTITLE0=The Changing Man
TTITLE1=Into Tomorrow
TTITLE2=Out of the Sinking
TTITLE3=Stanley Road
TTITLE4=Sunflower
TTITLE5=Wild Wood
TTITLE6=Woodcutters Son
TTITLE7=You do something to me
TTITLE8=Changing Man (Backing)
TTITLE9=Into Tomorrow (Backing)
TTITLE10=Out of the Sinking (Backing)
TTITLE11=Stanley Road (Backing)
TTITLE12=Sunflower (Backing)
TTITLE13=Wild Wood (Backing)
TTITLE14=Woodcutter (Backing)
TTITLE15=You do something to me (Backing)
EXTD=Backing Tracks
EXTT0=
EXTT1=
EXTT2=
EXTT3=
EXTT4=
EXTT5=
EXTT6=
EXTT7=
EXTT8=
EXTT9=
EXTT10=
EXTT11=
EXTT12=
EXTT13=
EXTT14=
EXTT15=
PLAYORDER=
